<?xml version="1.0" encoding="utf-8"?>
<!-- Generator: Adobe Illustrator 19.2.1, SVG Export Plug-In . SVG Version: 6.00 Build 0)  -->
<svg version="1.1" id="Livello_1" xmlns="http://www.w3.org/2000/svg" xmlns:xlink="http://www.w3.org/1999/xlink" x="0px" y="0px"
	 width="848px" height="680px" viewBox="0 0 848 680" style="enable-background:new 0 0 848 680;" xml:space="preserve">
<g>
	<path d="M455.9,225.4c-7.8,0-14.1,6.3-14.1,14.1s6.3,14,14.1,14c7.7,0,14-6.2,14-14S463.6,225.4,455.9,225.4z"/>
	<path d="M842.3,158.6L731.8,140L743,34.3l-74,77.2l1,1.7c-57.9-60.1-139.2-97.6-229.3-97.6C365.8,15.6,265,47,195,157.9
		c-56,88.6-18.4,165.5-51.7,205.2c-44.4,52.7-121.8-27.6-121.8-27.6s43.5,335,419.2,317.1c175.6-8.3,318.4-142.5,318.4-318.4
		c0-40.6-7.7-79.4-21.6-115.1L842.3,158.6z M269.1,472.6c-39.5,0-71.5-32-71.5-71.5h143C340.6,440.6,308.6,472.6,269.1,472.6z
		 M455.9,348.3c-60.2,0-108.9-48.8-108.9-108.9c0-60.2,48.7-108.9,108.9-108.9c60.1,0,108.9,48.7,108.9,108.9S516,348.3,455.9,348.3
		z"/>
</g>
</svg>
