<?xml version="1.0" encoding="utf-8"?>
<!-- Generator: Adobe Illustrator 19.2.1, SVG Export Plug-In . SVG Version: 6.00 Build 0)  -->
<svg version="1.1" id="Livello_1" xmlns="http://www.w3.org/2000/svg" xmlns:xlink="http://www.w3.org/1999/xlink" x="0px" y="0px"
	 width="237.2px" height="256.5px" viewBox="0 0 237.2 256.5" style="enable-background:new 0 0 237.2 256.5;" xml:space="preserve"
	>
<g>
	<g>
		<ellipse cx="189.8" cy="42.1" rx="37" ry="36.1"/>
	</g>
</g>
<g>
	<g>
		<ellipse cx="189.8" cy="210.4" rx="37" ry="36.1"/>
	</g>
</g>
<g>
	<ellipse cx="41.9" cy="120.9" rx="37" ry="36.1"/>
</g>
<g>
	<path d="M189.8,209.5c-1.6,0-3.3-0.4-4.8-1.2L37.1,129.5c-3.2-1.7-5.3-5-5.3-8.6s2-6.9,5.3-8.6L185,33.5c4.9-2.6,11-0.8,13.7,3.9
		c2.7,4.8,0.9,10.8-4,13.4L62.9,120.9L194.6,191c4.9,2.6,6.7,8.6,4,13.4C196.8,207.7,193.3,209.5,189.8,209.5z"/>
</g>
</svg>
